<?xml version="1.0" encoding="utf-8"?>
<!-- Generator: Adobe Illustrator 24.1.1, SVG Export Plug-In . SVG Version: 6.00 Build 0)  -->
<svg version="1.1" id="Livello_1" xmlns="http://www.w3.org/2000/svg" xmlns:xlink="http://www.w3.org/1999/xlink" x="0px" y="0px"
	 viewBox="0 0 841.89 595.28" style="enable-background:new 0 0 841.89 595.28;" xml:space="preserve">
<style type="text/css">
	.st0{fill:#FFFFFF;}
</style>
<g>
	<path class="st0" d="M172.55,202.8c-1.96,3.35-4.07,6.73-6.31,10.14c-2.25,3.41-4.56,6.82-6.92,10.22
		c-2.37,3.41-4.73,6.76-7.09,10.05c-2.37,3.29-4.53,6.44-6.49,9.44l-3.98,6.06c1.84,0,3.57-0.26,5.19-0.78
		c1.61-0.52,3.05-0.78,4.33-0.78c0.58,0,0.86,0.17,0.86,0.52c0,0.69-0.58,1.33-1.73,1.91c-1.15,0.58-2.4,1.04-3.72,1.39
		c-1.33,0.35-2.54,0.58-3.63,0.69c-1.1,0.12-1.59,0.17-1.47,0.17c-1.27,0.12-2.14,0.46-2.6,1.04c-0.46,0.58-1.15,1.67-2.08,3.29
		l-2.6,4.33c-6.57,10.86-11.33,20.19-14.27,27.98s-4.41,13.72-4.41,17.76c0,3.92,0.87,6.79,2.6,8.57s3.6,3.03,5.62,3.72
		c2.02,0.69,3.89,1.09,5.62,1.21c1.73,0.11,2.59,0.46,2.59,1.04c0,0.58-0.35,0.98-1.04,1.21c-0.69,0.23-1.5,0.35-2.42,0.35
		c-1.5,0-3.23-0.35-5.19-1.04c-1.96-0.69-3.81-1.76-5.54-3.2c-1.73-1.44-3.2-3.32-4.41-5.63c-1.21-2.31-1.82-5.14-1.82-8.49
		c0-4.16,0.78-8.63,2.34-13.43c1.56-4.79,3.46-9.62,5.71-14.47c2.25-4.85,4.7-9.5,7.35-13.95c2.65-4.45,5.02-8.4,7.09-11.87
		c-4.38-1.15-8.16-2.54-11.33-4.16c-3.17-1.62-6.6-3.35-10.29-5.2l-3.63-1.73c-3.23,3.58-6.78,7.94-10.64,13.08
		c-3.87,5.14-8.02,10.54-12.46,16.2c-4.44,5.66-9.08,11.32-13.93,16.98c-4.84,5.66-9.8,10.74-14.88,15.25
		c-5.08,4.5-10.21,8.14-15.4,10.92c-5.19,2.77-10.38,4.16-15.57,4.16c-6.34,0-11.13-1.5-14.36-4.5c-3.23-3-4.84-6.69-4.84-11.07
		c0-1.04,0.23-2.45,0.69-4.24c0.46-1.79,1.12-3.6,1.99-5.45c0.86-1.84,1.84-3.43,2.94-4.76c1.09-1.32,2.34-1.99,3.72-1.99
		c0.46,0,0.69,0.23,0.69,0.69c0,0.69-0.46,1.67-1.38,2.94c-3.11,4.5-4.67,8.65-4.67,12.46s1.38,6.95,4.15,9.43
		c2.77,2.48,6.4,3.72,10.9,3.72c4.96,0,10.21-1.81,15.74-5.44c5.54-3.63,11.13-8.2,16.78-13.72c5.65-5.53,11.16-11.6,16.52-18.22
		c5.36-6.62,10.35-12.86,14.96-18.73l15.4-19.68c-6.23-3.68-11.33-6.18-15.31-7.51c-3.98-1.32-7.24-1.99-9.77-1.99
		c-1.85,0-3.37,0.26-4.58,0.78s-2.22,1.1-3.03,1.73c-0.81,0.64-1.5,1.21-2.08,1.73c-0.58,0.52-1.15,0.78-1.73,0.78
		c-0.58,0-0.87-0.23-0.87-0.69c0-0.46,0.29-1.12,0.87-1.99c0.58-0.87,1.44-1.7,2.59-2.51c1.15-0.81,2.6-1.5,4.33-2.08
		c1.73-0.58,3.75-0.87,6.06-0.87c3.69,0,7.78,1.04,12.28,3.11c4.5,2.08,9.05,4.33,13.67,6.75c4.61-4.84,9.28-9.55,14.01-14.13
		c4.73-4.58,9.66-8.64,14.79-12.18c5.13-3.54,10.61-6.38,16.44-8.53c5.82-2.15,12.2-3.22,19.12-3.22c1.27,0,2.1,0.09,2.51,0.26
		c0.4,0.17,0.61,0.49,0.61,0.95C175.14,198.19,174.28,199.92,172.55,202.8z M135.87,247.95c5.42-8.07,10.96-16.06,16.61-23.96
		c5.65-7.9,11.65-15.6,17.99-23.1h-0.17c0.46-0.46,0.69-0.75,0.69-0.86c0-0.58-0.46-0.87-1.38-0.87c-0.81,0-1.7,0.15-2.68,0.43
		c-0.98,0.29-1.7,0.43-2.16,0.43c-5.54,0.92-10.79,2.57-15.74,4.93c-4.96,2.37-9.66,5.19-14.1,8.48
		c-4.44,3.29-8.65,6.95-12.63,10.99c-3.98,4.04-7.7,8.13-11.16,12.28c4.04,2.65,7.9,4.93,11.59,6.83c3.69,1.9,7.96,3.43,12.8,4.58
		L135.87,247.95z"/>
	<path class="st0" d="M203.51,276.32c0.23,0,0.4-0.06,0.52-0.17c0.11-0.11,0.29-0.17,0.52-0.17c0.46,0,0.69,0.23,0.69,0.69
		c0,0.23-0.15,0.61-0.43,1.12c-0.29,0.52-0.61,1.01-0.95,1.47h0.17c-1.38,1.38-3.49,3.4-6.31,6.06c-2.83,2.65-5.88,5.31-9.17,7.96
		c-3.29,2.65-6.57,5.02-9.86,7.09c-3.29,2.08-6.08,3.11-8.39,3.11c-2.02,0-3.48-0.61-4.37-1.82s-1.34-2.39-1.34-3.55
		c0-2.08,0.83-4.5,2.51-7.27c1.67-2.77,3.49-5.51,5.45-8.22c1.96-2.71,3.78-5.19,5.45-7.44c1.67-2.25,2.51-3.95,2.51-5.1
		c0-1.04-0.69-1.56-2.08-1.56c-1.73,0-3.78,0.92-6.14,2.77c-2.37,1.85-4.9,4.13-7.61,6.83c-2.71,2.71-5.39,5.68-8.04,8.91
		c-2.65,3.23-5.1,6.23-7.35,9c-2.25,2.77-4.21,5.1-5.88,7.01c-1.67,1.9-2.74,2.85-3.2,2.85c-0.23,0.11-0.52,0.17-0.87,0.17
		c-1.04,0-1.56-0.81-1.56-2.42c0-1.15,0.23-2.19,0.69-3.11c0.46-1.04,1.41-3.08,2.85-6.14c1.44-3.05,2.97-6.29,4.58-9.69
		c1.61-3.4,3.14-6.54,4.58-9.43c1.44-2.88,2.39-4.61,2.85-5.19c1.15-1.15,2.19-1.73,3.11-1.73c1.61,0,2.42,0.86,2.42,2.59
		c0,0.23-0.06,0.61-0.17,1.12c-0.12,0.52-0.29,0.95-0.52,1.3l-1.04,1.9c-2.19,3.92-3.78,6.83-4.76,8.74
		c-0.98,1.9-1.47,3.14-1.47,3.72c0,0.12,0.06,0.17,0.17,0.17c0.23-0.23,0.86-0.92,1.9-2.08c1.04-1.15,2.34-2.54,3.89-4.15
		c1.56-1.61,3.29-3.37,5.19-5.28s3.83-3.66,5.8-5.28c1.96-1.61,3.89-2.91,5.8-3.89c1.9-0.98,3.6-1.47,5.1-1.47
		c0.92,0,1.93,0.34,3.03,1.03c1.09,0.69,1.64,2,1.64,3.94c0,2.06-0.74,4.48-2.22,7.28c-1.48,2.8-3.14,5.6-4.96,8.39
		c-1.82,2.8-3.48,5.37-4.96,7.71s-2.22,4.08-2.22,5.22c0,0.91,0.52,1.37,1.56,1.37c2.19,0,4.9-1.15,8.13-3.46
		c3.23-2.31,6.43-4.9,9.6-7.79c3.17-2.88,6.14-5.62,8.91-8.22C200.05,278.66,202.13,277.01,203.51,276.32z"/>
	<path class="st0" d="M236.16,269.23c-2.3,1.62-4,2.74-5.1,3.37c-1.09,0.64-1.95,1.24-2.59,1.82c-0.63,0.58-1.21,1.27-1.73,2.08
		c-0.52,0.81-1.35,2.14-2.5,3.98l-2.93,4.67c-0.69,1.15-1.56,2.63-2.59,4.41c-1.04,1.79-2.01,3.66-2.93,5.62
		c-0.92,1.96-1.76,3.84-2.5,5.62c-0.75,1.79-1.12,3.2-1.12,4.24c0,1.38,0.63,2.08,1.9,2.08c2.31,0,5.16-0.75,8.56-2.25
		c3.4-1.5,7.01-3.4,10.81-5.71c3.81-2.31,7.61-4.79,11.42-7.44c3.81-2.65,7.27-5.13,10.38-7.44c3.11-2.31,5.71-4.21,7.79-5.71
		c2.08-1.5,3.34-2.25,3.81-2.25c0.46,0,0.69,0.23,0.69,0.69c0,0.35-0.98,1.41-2.94,3.2c-1.96,1.79-4.56,3.89-7.79,6.31
		c-3.23,2.42-6.81,5.02-10.73,7.78c-3.92,2.77-7.9,5.31-11.94,7.61c-4.04,2.31-7.84,4.21-11.42,5.71c-3.58,1.5-6.57,2.25-9,2.25
		c-2.08,0-3.52-0.64-4.32-1.9c-0.81-1.27-1.21-2.71-1.21-4.33c0-1.38,0.23-2.91,0.69-4.58c0.46-1.67,1.03-3.29,1.72-4.84
		c0.69-1.56,1.37-3,2.06-4.32c0.69-1.32,1.26-2.39,1.72-3.2l-0.52-0.35l-0.69,0.52v-0.17c-0.81,0.69-2.04,1.7-3.71,3.03
		c-1.67,1.33-3.45,2.68-5.35,4.07c-1.9,1.38-3.8,2.57-5.7,3.55c-1.9,0.98-3.54,1.47-4.92,1.47c-0.81,0-1.5-0.26-2.07-0.78
		c-0.58-0.52-0.86-1.41-0.86-2.68c0-2.31,0.89-5.13,2.68-8.48c1.79-3.34,3.98-6.57,6.57-9.69c2.59-3.11,5.33-5.77,8.22-7.96
		c2.88-2.19,5.54-3.29,7.96-3.29c1.15,0,2.28,0.46,3.37,1.38c1.09,0.92,1.64,2.25,1.64,3.98c0,0.92-0.17,1.64-0.52,2.16
		c-0.35,0.52-0.69,0.78-1.04,0.78c-0.35,0-0.58-0.26-0.69-0.78c-0.12-0.52-0.29-1.12-0.52-1.82c-0.23-0.69-0.49-1.3-0.78-1.82
		c-0.29-0.52-0.78-0.78-1.47-0.78c-1.5,0-3.46,1.28-5.88,3.83c-2.42,2.55-4.79,5.46-7.09,8.71c-2.31,3.25-4.3,6.3-5.97,9.14
		c-1.67,2.84-2.51,4.61-2.51,5.31c0.92,0,2.73-0.9,5.43-2.69c2.7-1.79,5.54-3.84,8.53-6.15s5.75-4.59,8.28-6.85
		c2.53-2.25,4.14-3.84,4.83-4.77c1.84-2.77,4.25-6.33,7.24-10.66c2.99-4.33,6.26-8.93,9.83-13.78c3.56-4.85,7.33-9.71,11.29-14.56
		c3.96-4.85,7.96-9.24,11.98-13.18c4.02-3.93,7.93-7.13,11.72-9.62c3.79-2.48,7.3-3.73,10.52-3.73c2.18,0,3.96,0.58,5.34,1.73
		c1.38,1.15,2.07,2.71,2.07,4.67c0,2.42-0.92,5.1-2.76,8.04c-1.84,2.94-4.26,6-7.25,9.17c-2.99,3.17-6.39,6.34-10.19,9.52
		c-3.8,3.17-7.6,6.2-11.39,9.08c-3.8,2.88-7.48,5.57-11.05,8.04c-3.57,2.48-6.56,4.58-8.97,6.31L236.16,269.23z M284.82,212.83
		c-3,0.12-6.18,1.24-9.53,3.37c-3.35,2.14-6.73,4.84-10.13,8.13c-3.41,3.29-6.76,6.98-10.05,11.07c-3.29,4.1-6.41,8.19-9.35,12.28
		c-2.95,4.1-5.63,8.02-8.06,11.76c-2.42,3.75-4.39,6.89-5.89,9.43l0.35,0.35c2.08-1.27,4.82-3.08,8.23-5.45
		c3.41-2.36,7.07-5.04,11-8.04c3.92-3,7.91-6.17,11.95-9.52c4.04-3.34,7.77-6.6,11.17-9.77c3.41-3.17,6.35-6.11,8.83-8.82
		c2.48-2.71,4.07-4.99,4.77-6.83c0.58-1.5,0.87-2.82,0.87-3.98C288.98,214.5,287.59,213.18,284.82,212.83z"/>
	<path class="st0" d="M313.89,276.67c0.11,0,0.2-0.03,0.26-0.09c0.06-0.06,0.14-0.09,0.26-0.09c0.69,0,1.04,0.17,1.04,0.52
		c0,0.46-0.17,0.95-0.52,1.47c-0.35,0.52-0.69,0.95-1.04,1.3v-0.17c-1.27,0.81-2.94,2.08-5.02,3.81c-2.08,1.73-4.35,3.66-6.83,5.8
		c-2.48,2.14-5.08,4.3-7.78,6.49c-2.71,2.19-5.34,4.21-7.87,6.06c-2.54,1.84-4.93,3.37-7.18,4.58s-4.07,1.82-5.45,1.82
		c-1.96,0-3.32-0.58-4.07-1.74c-0.75-1.16-1.12-2.37-1.12-3.64c0-1.74,0.49-3.79,1.47-6.16c0.98-2.37,2.19-4.77,3.63-7.2
		c1.44-2.43,2.91-4.74,4.41-6.94c1.5-2.2,2.77-3.99,3.81-5.38l1.9-2.6c-1.27-0.23-2.34-0.61-3.2-1.13
		c-0.87-0.52-1.59-1.01-2.16-1.47c-0.58-0.46-1.07-0.87-1.47-1.21c-0.41-0.35-0.84-0.52-1.3-0.52c-0.58,0-1.53,0.93-2.85,2.78
		c-1.33,1.85-3.55,4.22-6.66,7.11c-0.23,0.23-0.75,0.67-1.56,1.3c-0.81,0.64-1.56,0.95-2.25,0.95c-0.46,0-0.69-0.29-0.69-0.87
		c0-1.16,0.69-2.34,2.08-3.56c1.38-1.21,2.54-2.28,3.46-3.21l1.73-1.74v0.17c1.27-1.16,2.36-2.37,3.29-3.64
		c0.92-1.27,1.38-1.97,1.38-2.08c0-0.23-0.12-0.46-0.35-0.69h0.17c-0.23-0.35-0.58-1.01-1.04-2c-0.46-0.98-0.69-2.57-0.69-4.77
		c0-2.31,0.58-4.4,1.73-6.25c1.15-1.85,2.94-2.78,5.36-2.78c1.73,0,2.94,0.49,3.63,1.47c0.69,0.98,1.04,2.11,1.04,3.37
		c0,1.5-0.35,3.06-1.04,4.67c-0.69,1.62-1.38,2.94-2.08,3.98l-2.08,3.29c1.73,1.73,3.34,2.91,4.84,3.55
		c1.5,0.64,2.82,1.04,3.98,1.21c1.15,0.17,2.05,0.23,2.68,0.17c0.63-0.06,0.95,0.09,0.95,0.43c0,0.92-0.58,2.34-1.73,4.24
		c-1.15,1.9-2.19,3.49-3.11,4.76l-1.21,1.73c-0.58,0.92-1.5,2.34-2.77,4.24c-1.27,1.9-2.54,3.95-3.81,6.14
		c-1.27,2.19-2.42,4.3-3.46,6.31c-1.04,2.02-1.56,3.49-1.56,4.41c0.35,0.35,0.63,0.52,0.86,0.52c1.04,0,2.71-0.69,5.02-2.08
		c2.31-1.38,4.9-3.14,7.79-5.28c2.88-2.13,5.85-4.41,8.91-6.83c3.05-2.42,5.88-4.7,8.48-6.83c2.6-2.13,4.78-3.92,6.57-5.36
		C312.47,277.56,313.54,276.78,313.89,276.67z M277.21,253.83c-1.5,1.15-2.25,2.88-2.25,5.19c0,1.15,0.14,2.31,0.43,3.46
		c0.29,1.15,0.66,2.19,1.12,3.11c0.35-0.35,0.75-0.86,1.21-1.56c0.46-0.69,0.92-1.47,1.38-2.34c0.46-0.86,0.87-1.73,1.21-2.59
		c0.35-0.87,0.52-1.7,0.52-2.51c0-0.69-0.2-1.35-0.61-1.99c-0.41-0.63-1.01-0.95-1.82-0.95c-0.12,0-0.2,0.03-0.26,0.09
		c-0.06,0.06-0.15,0.09-0.26,0.09H277.21z"/>
	<path class="st0" d="M356.79,278.22c0.92-0.81,1.73-1.21,2.42-1.21s1.04,0.29,1.04,0.86c0,0.57-0.35,1.32-1.04,2.23
		c-2.08,1.95-4.7,4.15-7.87,6.61c-3.17,2.46-6.6,4.75-10.29,6.87c-3.69,2.12-7.53,3.92-11.5,5.41c-3.98,1.49-7.93,2.23-11.85,2.23
		c-4.15,0-7.07-0.89-8.74-2.68c-1.67-1.79-2.51-4.07-2.51-6.83c0-1.84,0.54-4.27,1.63-7.27c1.09-3,2.61-5.91,4.56-8.74
		c1.95-2.82,4.27-5.25,6.96-7.27c2.69-2.02,5.64-3.03,8.85-3.03c1.61,0,3.07,0.43,4.38,1.3c1.32,0.87,1.98,1.99,1.98,3.37
		c0,1.27-0.37,2.51-1.12,3.72c-0.75,1.21-1.75,2.31-3.01,3.29c-1.26,0.98-2.75,1.79-4.46,2.42c-1.72,0.63-3.55,0.95-5.5,0.95
		c-0.8,0-1.43-0.06-1.89-0.17c-0.46-0.11-0.92-0.17-1.37-0.17c-0.46,0-1,0.49-1.63,1.48c-0.63,0.99-1.26,2.15-1.89,3.49
		c-0.63,1.34-1.17,2.74-1.63,4.19c-0.46,1.46-0.69,2.65-0.69,3.58c0,2.33,0.63,3.85,1.9,4.54c1.27,0.7,2.88,1.05,4.84,1.05
		c3.81,0,7.5-0.69,11.07-2.08c3.57-1.38,7.01-3.08,10.29-5.1c3.29-2.02,6.37-4.21,9.26-6.57
		C351.88,282.35,354.48,280.19,356.79,278.22z M327.88,268.36c-2.21,0.94-4,2.21-5.39,3.79c-1.39,1.59-2.78,3.44-4.17,5.55
		c1.04,0,2.38-0.06,4-0.18c1.62-0.12,3.16-0.44,4.61-0.97c1.45-0.53,2.7-1.29,3.74-2.29c1.04-1,1.57-2.38,1.57-4.14
		c0-0.82-0.26-1.35-0.78-1.58c-0.52-0.24-1.13-0.35-1.82-0.35c-0.23,0-0.41,0.03-0.52,0.09c-0.12,0.06-0.23,0.09-0.35,0.09H327.88z"
		/>
	<path class="st0" d="M409.72,276.84c0.58,0,0.86,0.23,0.86,0.69c0,0.69-0.17,1.21-0.52,1.56v-0.17l-1.04,0.87
		c-0.23,0.12-1.04,0.86-2.42,2.25v-0.17c-1.73,1.5-4.01,3.43-6.83,5.8c-2.83,2.37-5.85,4.67-9.08,6.92c-3.23,2.25-6.4,4.18-9.51,5.8
		c-3.11,1.62-5.83,2.42-8.13,2.42c-2.54,0-3.81-1.5-3.81-4.5c0-1.27,0.29-2.82,0.86-4.67c0.58-1.84,1.3-3.72,2.16-5.62
		c0.87-1.9,1.76-3.75,2.68-5.54c0.92-1.79,1.73-3.2,2.42-4.24l-0.35-0.35l-1.38,1.21c-1.38,1.27-3,2.77-4.84,4.5
		c-1.85,1.73-3.75,3.37-5.71,4.93c-1.96,1.56-3.87,2.88-5.71,3.98c-1.85,1.1-3.46,1.64-4.84,1.64c-1.27,0-2.11-0.34-2.51-1.03
		c-0.41-0.69-0.61-1.49-0.61-2.41c0-1.26,0.35-2.72,1.04-4.38s1.47-3.27,2.34-4.82c0.87-1.55,1.76-2.95,2.68-4.21
		c0.92-1.26,1.61-2.18,2.08-2.75h-0.17c0.69-0.69,1.58-1.58,2.68-2.67c1.09-1.09,2.34-2.09,3.72-3.01c1.38-0.92,2.82-1.72,4.32-2.41
		c1.5-0.69,2.94-1.03,4.33-1.03c1.15,0,2.28,0.49,3.37,1.47c1.09,0.98,1.64,2.45,1.64,4.41c1.96-1.96,3.55-3.34,4.76-4.15
		c1.21-0.81,2.16-1.21,2.85-1.21c1.38,0,2.08,0.75,2.08,2.24c0,0.23-0.38,1.01-1.12,2.32c-0.75,1.32-1.7,2.98-2.85,4.99
		c-1.15,2.01-2.4,4.22-3.72,6.63c-1.33,2.41-2.57,4.73-3.72,6.97c-1.15,2.24-2.11,4.3-2.85,6.2c-0.75,1.9-1.12,3.3-1.12,4.22
		c0.35,0.35,0.63,0.52,0.86,0.52c1.73,0,3.89-0.69,6.49-2.08c2.59-1.38,5.28-3.08,8.04-5.1c2.77-2.02,5.51-4.15,8.22-6.4
		c2.71-2.25,5.1-4.18,7.18-5.8l4.67-3.81H409.72z M377.2,273.38v-0.69c-0.12-1.04-0.29-2.02-0.52-2.94
		c-0.23-0.92-0.87-1.44-1.9-1.56c-1.38,0-3.17,1.01-5.36,3.03c-2.19,2.02-4.33,4.33-6.4,6.92c-2.08,2.6-3.87,5.13-5.36,7.61
		c-1.5,2.48-2.25,4.13-2.25,4.93c0,0.69,0.29,1.04,0.87,1.04c0.69,0,2.02-0.72,3.98-2.16c1.96-1.44,4.84-4.01,8.65-7.7L377.2,273.38
		z"/>
	<path class="st0" d="M572.17,276.32c0.11,0,0.2-0.03,0.26-0.09c0.06-0.06,0.14-0.09,0.26-0.09c0.81,0,1.21,0.29,1.21,0.86
		c0,0.46-0.95,1.85-2.85,4.15c-1.9,2.31-4.38,5.1-7.44,8.39c-3.06,3.29-6.52,6.78-10.38,10.47c-3.87,3.69-7.79,7.12-11.76,10.29
		c-3.98,3.17-7.79,5.77-11.42,7.79c-3.63,2.02-6.72,3.03-9.25,3.03c-2.21,0-3.77-0.52-4.69-1.56c-0.91-1.04-1.37-2.48-1.37-4.32
		c0-2.19,0.55-4.84,1.64-7.96c1.09-3.11,2.57-6.4,4.41-9.86c1.84-3.46,3.89-7.03,6.14-10.73c2.25-3.69,4.53-7.27,6.83-10.73
		c2.31-3.46,4.5-6.69,6.57-9.69c2.08-3,3.86-5.59,5.36-7.78l2.6-3.81c0.92-1.38,2.25-3.34,3.98-5.88c1.73-2.54,3.6-5.42,5.62-8.65
		c2.02-3.23,4.09-6.63,6.23-10.21c2.13-3.57,4.07-7.03,5.8-10.38c1.73-3.34,3.17-6.43,4.33-9.26c1.15-2.82,1.73-5.1,1.73-6.83
		c0-1.61-0.46-2.77-1.38-3.46c-0.92-0.69-1.9-1.04-2.94-1.04c-1.38,0-2.88,0.41-4.5,1.21c-1.62,0.81-3.17,1.73-4.67,2.77
		c-1.5,1.04-2.88,2.08-4.15,3.11c-1.27,1.04-2.25,1.85-2.94,2.42c-5.31,4.73-10.58,10.32-15.83,16.78
		c-5.25,6.46-10.38,13.09-15.4,19.9c-5.02,6.81-9.83,13.52-14.45,20.15c-4.61,6.63-8.82,12.54-12.63,17.73h0.17l-1.38,1.56
		c-0.58,0.69-1.3,1.5-2.16,2.42c-0.87,0.92-1.76,1.38-2.68,1.38c-1.5,0-2.25-0.75-2.25-2.25c0-1.15,0.4-2.36,1.21-3.63
		c0.81-1.27,1.61-2.54,2.42-3.81l2.59-4.15c1.27-2.08,3-4.87,5.19-8.39c2.19-3.52,4.53-7.41,7.01-11.68
		c2.48-4.27,5.02-8.68,7.61-13.23c2.59-4.55,4.9-8.97,6.92-13.23c2.02-4.27,3.69-8.16,5.02-11.68c1.33-3.52,1.99-6.31,1.99-8.39
		c0-2.65-1.21-3.98-3.63-3.98c-2.88,0-6.23,1.47-10.03,4.41c-3.81,2.94-7.87,6.81-12.2,11.59c-4.32,4.79-8.74,10.18-13.23,16.18
		c-4.5,6-8.85,12.05-13.06,18.17c-4.21,6.11-8.16,12-11.85,17.65c-3.69,5.65-6.81,10.44-9.34,14.36l-4.5,6.92h0.17
		c-1.27,1.27-2.51,2.85-3.72,4.76c-1.21,1.9-2.4,3.78-3.55,5.62c-1.15,1.84-2.25,3.4-3.29,4.67c-1.04,1.27-2.08,1.9-3.11,1.9
		c-0.69,0-1.3-0.2-1.82-0.61c-0.52-0.41-0.78-1.07-0.78-1.99c0-0.92,0.29-1.9,0.87-2.94c3.92-8.53,8.13-16.89,12.63-25.08
		c4.5-8.19,9.05-16.44,13.67-24.74l2.59-4.67c1.38-2.54,2.88-5.28,4.5-8.22c1.61-2.94,3.08-5.88,4.41-8.82
		c1.33-2.94,2.42-5.82,3.29-8.65c0.87-2.82,1.3-5.45,1.3-7.87c0-1.84-0.41-3.37-1.21-4.58c-0.81-1.21-2.19-1.82-4.15-1.82
		c-3.92,0-7.7,1.38-11.33,4.15s-6.98,6.2-10.03,10.29c-3.06,4.1-5.74,8.45-8.04,13.06c-2.31,4.61-4.04,8.77-5.19,12.46
		c-0.35,0.81-0.72,1.5-1.13,2.08c-0.41,0.58-0.72,0.86-0.95,0.86c-0.35,0-0.52-0.63-0.52-1.9c0-3.81,1.09-8.22,3.29-13.23
		c2.19-5.02,5.02-9.77,8.48-14.27c3.46-4.5,7.35-8.33,11.68-11.5c4.32-3.17,8.62-4.76,12.89-4.76c3.46,0,5.91,0.98,7.35,2.94
		c1.44,1.96,2.16,4.61,2.16,7.96c0,3.46-0.72,7.38-2.16,11.76c-1.44,4.38-3.26,8.85-5.45,13.41c-2.19,4.56-4.53,9.06-7.01,13.49
		c-2.48,4.44-4.76,8.45-6.83,12.02c-1.96,3.35-3.84,6.75-5.62,10.21c-1.79,3.46-3.61,6.98-5.45,10.55l0.69,0.35l4.33-6.57
		c2.42-3.69,5.42-8.3,9-13.84c3.57-5.54,7.5-11.36,11.76-17.47c4.27-6.11,8.71-12.22,13.34-18.34c4.63-6.11,9.2-11.59,13.71-16.43
		c4.51-4.84,8.8-8.76,12.85-11.76c4.05-3,7.64-4.5,10.76-4.5c1.97,0,3.59,0.69,4.86,2.08c1.27,1.38,1.91,3.29,1.91,5.71
		c0,3-0.69,6.55-2.07,10.64c-1.38,4.1-3.02,8.22-4.91,12.37s-3.88,8.07-5.95,11.76c-2.07,3.69-3.74,6.69-5,9l-1.38,2.42l0.69,0.35
		l2.08-2.77c1.73-2.19,3.93-5.1,6.58-8.74c2.66-3.63,5.63-7.55,8.93-11.76c3.29-4.21,6.79-8.42,10.48-12.63
		c3.7-4.21,7.37-8.04,11-11.5s7.16-6.25,10.57-8.39c3.41-2.13,6.44-3.2,9.1-3.2c1.85,0,3.5,0.61,4.94,1.82
		c1.44,1.21,2.17,3.26,2.17,6.15c0,2.54-0.61,5.54-1.82,9.01c-1.21,3.47-2.77,7.13-4.67,11c-1.9,3.87-4.04,7.8-6.4,11.78
		c-2.37,3.98-4.76,7.85-7.18,11.61c-2.42,3.75-4.76,7.25-7.01,10.48s-4.13,6.01-5.62,8.31l-2.94,4.33
		c-0.46,0.69-1.41,2.08-2.85,4.16c-1.44,2.08-3.11,4.5-5.02,7.27c-1.9,2.77-3.89,5.78-5.97,9.01c-2.08,3.23-3.98,6.35-5.71,9.36
		c-1.73,3-3.17,5.8-4.32,8.4c-1.15,2.6-1.73,4.59-1.73,5.98c0,1.04,0.37,1.82,1.13,2.34c0.75,0.52,1.58,0.78,2.51,0.78
		c1.96,0,4.5-1.04,7.61-3.11c3.11-2.08,6.4-4.64,9.86-7.7c3.46-3.06,7.01-6.4,10.64-10.03c3.63-3.63,6.98-7.01,10.03-10.12
		c3.05-3.11,5.68-5.71,7.87-7.78C569.86,277.53,571.36,276.44,572.17,276.32z"/>
	<path class="st0" d="M622.34,276.84c0.58,0,0.87,0.23,0.87,0.69c0,0.69-0.17,1.21-0.52,1.56v-0.17l-1.04,0.87
		c-0.23,0.12-1.04,0.86-2.42,2.25v-0.17c-1.73,1.5-4.01,3.43-6.83,5.8c-2.83,2.37-5.86,4.67-9.08,6.92c-3.23,2.25-6.4,4.18-9.51,5.8
		c-3.11,1.62-5.83,2.42-8.13,2.42c-2.54,0-3.81-1.5-3.81-4.5c0-1.27,0.29-2.82,0.87-4.67c0.58-1.84,1.3-3.72,2.16-5.62
		c0.86-1.9,1.76-3.75,2.68-5.54c0.92-1.79,1.73-3.2,2.42-4.24l-0.35-0.35l-1.38,1.21c-1.38,1.27-3,2.77-4.84,4.5
		c-1.85,1.73-3.75,3.37-5.71,4.93c-1.96,1.56-3.87,2.88-5.71,3.98c-1.85,1.1-3.46,1.64-4.84,1.64c-1.27,0-2.11-0.34-2.51-1.03
		c-0.41-0.69-0.61-1.49-0.61-2.41c0-1.26,0.35-2.72,1.04-4.38c0.69-1.66,1.47-3.27,2.33-4.82c0.87-1.55,1.76-2.95,2.68-4.21
		c0.92-1.26,1.61-2.18,2.08-2.75h-0.17c0.69-0.69,1.58-1.58,2.68-2.67c1.09-1.09,2.33-2.09,3.72-3.01c1.38-0.92,2.83-1.72,4.33-2.41
		c1.5-0.69,2.94-1.03,4.33-1.03c1.15,0,2.28,0.49,3.37,1.47c1.09,0.98,1.64,2.45,1.64,4.41c1.96-1.96,3.55-3.34,4.76-4.15
		c1.21-0.81,2.16-1.21,2.85-1.21c1.38,0,2.08,0.75,2.08,2.24c0,0.23-0.38,1.01-1.13,2.32c-0.75,1.32-1.7,2.98-2.85,4.99
		c-1.15,2.01-2.39,4.22-3.72,6.63c-1.33,2.41-2.57,4.73-3.72,6.97c-1.15,2.24-2.11,4.3-2.85,6.2c-0.75,1.9-1.13,3.3-1.13,4.22
		c0.35,0.35,0.63,0.52,0.87,0.52c1.73,0,3.89-0.69,6.49-2.08c2.6-1.38,5.28-3.08,8.04-5.1c2.77-2.02,5.51-4.15,8.22-6.4
		c2.71-2.25,5.1-4.18,7.18-5.8l4.67-3.81H622.34z M589.81,273.38v-0.69c-0.12-1.04-0.29-2.02-0.52-2.94
		c-0.23-0.92-0.87-1.44-1.9-1.56c-1.38,0-3.17,1.01-5.36,3.03c-2.19,2.02-4.33,4.33-6.4,6.92c-2.08,2.6-3.87,5.13-5.36,7.61
		c-1.5,2.48-2.25,4.13-2.25,4.93c0,0.69,0.29,1.04,0.87,1.04c0.69,0,2.02-0.72,3.98-2.16c1.96-1.44,4.84-4.01,8.65-7.7
		L589.81,273.38z"/>
	<path class="st0" d="M696.21,276.49c0.23,0,0.4-0.06,0.52-0.17c0.11-0.11,0.29-0.17,0.52-0.17c0.46,0,0.69,0.23,0.69,0.69
		c0,0.58-0.41,1.38-1.21,2.42h0.17c-1.38,1.38-3.66,3.61-6.83,6.66c-3.17,3.06-6.6,6.14-10.29,9.26c-3.69,3.11-7.35,5.83-10.99,8.13
		c-3.63,2.31-6.66,3.46-9.08,3.46c-1.96,0-3.35-0.61-4.15-1.82c-0.81-1.21-1.21-2.33-1.21-3.37c0-2.19,0.89-4.78,2.68-7.79
		c1.79-3,3.78-5.97,5.97-8.91c2.19-2.94,4.18-5.62,5.97-8.04c1.79-2.42,2.68-4.27,2.68-5.54c0-1.04-0.69-1.56-2.08-1.56
		c-1.62,0-3.55,0.78-5.8,2.34c-2.25,1.56-4.61,3.52-7.09,5.88c-2.48,2.37-4.99,4.9-7.53,7.61c-2.54,2.71-4.87,5.25-7.01,7.61
		c-2.14,2.37-3.95,4.32-5.45,5.88c-1.5,1.56-2.42,2.33-2.77,2.33c-1.5,0-2.25-0.75-2.25-2.25c0-0.23,0.14-0.61,0.43-1.13
		c0.29-0.52,0.49-1.01,0.61-1.47c0.69-1.27,1.87-3.31,3.55-6.14c1.67-2.82,3.31-5.8,4.93-8.91c1.61-3.11,3.05-6.06,4.33-8.82
		c1.27-2.77,1.9-4.73,1.9-5.88c0-0.92-0.52-1.38-1.56-1.38s-2.31,0.58-3.81,1.73c-1.5,1.15-3.11,2.62-4.84,4.41
		c-1.73,1.79-3.49,3.78-5.28,5.97c-1.79,2.19-3.46,4.27-5.02,6.23c-1.56,1.96-2.88,3.69-3.98,5.19c-1.1,1.5-1.82,2.48-2.16,2.94
		l-2.25,3.11c-0.81,1.15-1.7,2.4-2.68,3.72c-0.98,1.33-1.9,2.54-2.77,3.63c-0.87,1.09-1.67,1.99-2.42,2.68
		c-0.75,0.69-1.3,1.04-1.64,1.04c-1.04,0-1.56-0.81-1.56-2.42c0-1.15,0.23-2.19,0.69-3.11c0.46-1.04,1.41-3.08,2.85-6.14
		c1.44-3.05,2.97-6.29,4.58-9.69c1.61-3.4,3.14-6.54,4.58-9.43c1.44-2.88,2.39-4.61,2.85-5.19c0.81-1.04,1.84-1.56,3.11-1.56
		c1.61,0,2.42,0.81,2.42,2.42c0,0.58-0.26,1.41-0.78,2.51c-0.52,1.1-1.13,2.31-1.82,3.63c-0.69,1.33-1.41,2.65-2.16,3.98
		c-0.75,1.33-1.36,2.51-1.82,3.55l0.69,0.35c0.69-0.81,1.96-2.42,3.81-4.84c1.84-2.42,3.98-4.93,6.4-7.53
		c2.42-2.59,4.9-4.9,7.44-6.92c2.54-2.02,4.84-3.03,6.92-3.03c0.96,0,1.89,0.38,2.79,1.12c0.9,0.75,1.36,1.93,1.36,3.55
		c0,1.27-0.23,2.63-0.69,4.07c-0.46,1.44-0.98,2.88-1.56,4.33c-0.58,1.44-1.21,2.8-1.9,4.07c-0.69,1.27-1.21,2.25-1.56,2.94
		l0.52,0.35c0.81-0.81,2.13-2.1,3.98-3.89c1.84-1.79,3.89-3.6,6.14-5.45c2.25-1.84,4.61-3.43,7.09-4.76
		c2.48-1.32,4.7-1.99,6.66-1.99c1.27,0,2.39,0.38,3.37,1.13c0.98,0.75,1.47,1.94,1.47,3.56c0,2.2-0.85,4.87-2.54,8
		c-1.69,3.13-3.53,6.2-5.51,9.21c-1.98,3.01-3.82,5.82-5.51,8.43c-1.69,2.61-2.54,4.49-2.54,5.65c0,0.92,0.52,1.39,1.56,1.39
		c1.38,0,3.11-0.63,5.19-1.9c2.08-1.27,4.33-2.88,6.75-4.84c2.42-1.96,4.9-4.09,7.44-6.4c2.54-2.31,4.9-4.5,7.09-6.57
		c2.19-2.08,4.12-3.86,5.8-5.36C694.33,277.77,695.51,276.84,696.21,276.49z"/>
	<path class="st0" d="M792.56,276.32c0.69-0.23,1.09-0.35,1.21-0.35c0.35,0,0.52,0.23,0.52,0.69c0,0.69-0.41,1.56-1.21,2.6h0.17
		c-1.38,1.38-3.49,3.4-6.32,6.06c-2.83,2.65-5.88,5.31-9.17,7.96c-3.29,2.65-6.57,5.02-9.86,7.09c-3.29,2.08-6.08,3.11-8.39,3.11
		c-2.08,0-3.55-0.61-4.41-1.82c-0.87-1.21-1.3-2.39-1.3-3.55c0-2.08,0.83-4.5,2.51-7.27c1.67-2.77,3.49-5.51,5.45-8.22
		c1.96-2.71,3.78-5.19,5.45-7.44c1.67-2.25,2.51-3.95,2.51-5.1c0-1.04-0.69-1.56-2.08-1.56c-1.85,0-3.95,0.9-6.31,2.68
		c-2.37,1.79-4.87,4.07-7.53,6.83c-2.65,2.77-5.31,5.74-7.96,8.91c-2.65,3.17-5.1,6.17-7.35,9c-2.25,2.83-4.21,5.19-5.88,7.09
		c-1.67,1.9-2.8,2.91-3.37,3.03h-0.52c-1.15,0-1.73-0.87-1.73-2.6c0-0.69,0.98-3.29,2.94-7.78c1.96-4.5,4.61-10.15,7.96-16.95
		l-0.35-0.17c-3.23,2.88-6.89,5.48-10.99,7.79c-4.09,2.31-8.1,3.46-12.02,3.46c-1.04,0-1.79-0.06-2.25-0.17
		c-0.92,1.04-2.11,2.31-3.55,3.81c-1.44,1.5-3,2.94-4.67,4.33c-1.67,1.38-3.43,2.54-5.28,3.46c-1.85,0.92-3.58,1.38-5.19,1.38
		c-2.19,0-3.78-0.69-4.76-2.07c-0.98-1.38-1.47-3.04-1.47-5c0-2.18,0.52-4.65,1.56-7.4c1.04-2.75,2.39-5.37,4.07-7.83
		c1.67-2.47,3.6-4.68,5.8-6.63c2.19-1.95,4.44-3.21,6.75-3.79c1.73-0.69,3.14-1.64,4.24-2.84c1.09-1.21,2.51-1.81,4.24-1.81
		c1.61,0,2.97,0.6,4.07,1.8c1.09,1.2,1.64,3,1.64,5.4c0,1.83-0.46,4.01-1.38,6.52c-0.92,2.52-2.19,4.86-3.81,7.03
		c0.58,0.23,1.07,0.34,1.47,0.34c0.4,0,0.72,0,0.95,0c1.61,0,3.4-0.43,5.36-1.3c1.96-0.86,3.95-1.99,5.97-3.37
		c2.02-1.38,4.01-2.88,5.97-4.5c1.96-1.61,3.81-3.23,5.54-4.84l2.42-2.25v0.17c0.35-0.11,0.86-0.52,1.56-1.21v0.17
		c0.81-0.58,1.5-0.86,2.08-0.86c1.5,0,2.25,0.86,2.25,2.59c0,0.23-0.06,0.61-0.17,1.12c-0.12,0.52-0.29,0.95-0.52,1.3
		c-2.31,4.15-4.09,7.5-5.36,10.03c-1.27,2.54-1.9,4.33-1.9,5.36c0,0.23,0.43-0.14,1.3-1.12c0.87-0.98,1.99-2.34,3.37-4.07
		s3.03-3.63,4.93-5.71c1.9-2.08,3.86-4.04,5.88-5.88c2.02-1.84,4.09-3.34,6.23-4.5c2.13-1.15,4.18-1.73,6.14-1.73
		c0.92,0,1.93,0.34,3.03,1.03c1.1,0.69,1.64,2,1.64,3.94c0,2.06-0.75,4.45-2.25,7.2c-1.5,2.74-3.14,5.51-4.93,8.31
		c-1.79,2.8-3.43,5.4-4.93,7.8c-1.5,2.4-2.25,4.17-2.25,5.31c0,0.91,0.52,1.37,1.56,1.37c1.38,0,3.08-0.58,5.1-1.73
		c2.02-1.15,4.12-2.57,6.31-4.24c2.19-1.67,4.44-3.55,6.75-5.62c2.31-2.08,4.41-4.01,6.31-5.8c1.9-1.79,3.57-3.34,5.02-4.67
		C790.8,277.33,791.87,276.55,792.56,276.32z M695.51,299.5c3-0.69,5.65-2.13,7.96-4.33c2.31-2.19,4.38-4.44,6.23-6.75
		c-1.85-1.38-3.11-2.91-3.81-4.58c-0.69-1.67-1.04-3.49-1.04-5.45c0-1.5,0.32-3.63,0.97-6.4c-1.38,0.92-2.87,2.42-4.48,4.5
		c-1.61,2.08-3.1,4.33-4.48,6.75s-2.55,4.82-3.53,7.18c-0.98,2.37-1.46,4.41-1.46,6.14c0,1.27,0.2,2.11,0.61,2.51
		c0.4,0.41,0.89,0.61,1.47,0.61h0.69c0.11,0,0.23-0.03,0.35-0.09C695.11,299.53,695.28,299.5,695.51,299.5z M712.2,284.97
		c0.35-0.46,0.79-1.15,1.32-2.08c0.53-0.92,1.05-1.99,1.58-3.2c0.53-1.21,1-2.45,1.41-3.72c0.41-1.27,0.62-2.48,0.62-3.63
		c0-1.04-0.27-2.02-0.79-2.94c-0.53-0.92-1.44-1.38-2.73-1.38c-1.53,0-2.94,0.92-4.23,2.77c-1.29,1.85-1.94,3.92-1.94,6.23
		c0,1.5,0.32,2.94,0.97,4.33c0.65,1.38,1.73,2.65,3.26,3.81L712.2,284.97z"/>
	<path class="st0" d="M835.29,278.22c0.92-0.81,1.73-1.21,2.42-1.21c0.69,0,1.04,0.29,1.04,0.86c0,0.57-0.35,1.32-1.04,2.23
		c-2.08,1.95-4.7,4.15-7.87,6.61c-3.17,2.46-6.6,4.75-10.29,6.87c-3.69,2.12-7.53,3.92-11.5,5.41c-3.98,1.49-7.93,2.23-11.85,2.23
		c-4.15,0-7.07-0.89-8.74-2.68c-1.67-1.79-2.51-4.07-2.51-6.83c0-1.84,0.54-4.27,1.63-7.27c1.09-3,2.61-5.91,4.56-8.74
		c1.95-2.82,4.27-5.25,6.96-7.27c2.69-2.02,5.64-3.03,8.86-3.03c1.61,0,3.07,0.43,4.38,1.3s1.98,1.99,1.98,3.37
		c0,1.27-0.37,2.51-1.12,3.72c-0.75,1.21-1.75,2.31-3.01,3.29c-1.26,0.98-2.75,1.79-4.46,2.42c-1.72,0.63-3.55,0.95-5.5,0.95
		c-0.8,0-1.43-0.06-1.89-0.17c-0.46-0.11-0.92-0.17-1.37-0.17c-0.46,0-1,0.49-1.63,1.48s-1.26,2.15-1.89,3.49
		c-0.63,1.34-1.17,2.74-1.63,4.19c-0.46,1.46-0.69,2.65-0.69,3.58c0,2.33,0.63,3.85,1.9,4.54c1.27,0.7,2.88,1.05,4.84,1.05
		c3.81,0,7.5-0.69,11.07-2.08c3.57-1.38,7.01-3.08,10.29-5.1c3.29-2.02,6.37-4.21,9.26-6.57
		C830.39,282.35,832.99,280.19,835.29,278.22z M806.38,268.36c-2.21,0.94-4,2.21-5.39,3.79c-1.39,1.59-2.78,3.44-4.17,5.55
		c1.04,0,2.38-0.06,4-0.18c1.62-0.12,3.16-0.44,4.61-0.97c1.45-0.53,2.7-1.29,3.74-2.29c1.04-1,1.57-2.38,1.57-4.14
		c0-0.82-0.26-1.35-0.78-1.58c-0.52-0.24-1.13-0.35-1.82-0.35c-0.23,0-0.41,0.03-0.52,0.09c-0.12,0.06-0.23,0.09-0.35,0.09H806.38z"
		/>
</g>
</svg>
